<?xml version="1.0"?>
<svg xmlns="http://www.w3.org/2000/svg" version="1.1" width="940.5pt" height="591.75pt" viewBox="-117.75 -104.001968503944 940.5 591.75" preserveAspectRatio="none" xmlns:xlink="http://www.w3.org/1999/xlink">
  <defs>
  </defs>
  <path d="M363.899993896484,196.080459594727 L433.067993164063,195.858184814453 " stroke="#6E6E6E" fill="none" stroke-width="1" stroke-opacity="1" />
  <path d="M438.767944335938,195.839859008789 L433.075134277344,198.078170776367 L433.060852050781,193.638198852539 L438.767944335938,195.839859008789 " stroke="none" fill="#6E6E6E" fill-rule="evenodd" stroke-width="0" fill-opacity="1" />
  <path d="M438.767944335938,195.839859008789 L433.075134277344,198.078170776367 L433.060852050781,193.638198852539 L438.767944335938,195.839859008789 " stroke="#6E6E6E" fill="none" stroke-width="1" stroke-opacity="1" />
  <path d="M325.916778564453,129.887680053711 L326.352752685547,166.800384521484 " stroke="#6E6E6E" fill="none" stroke-width="1" stroke-opacity="1" />
  <path d="M326.420043945313,172.499984741211 L324.132904052734,166.826614379883 L328.572570800781,166.774169921875 L326.420043945313,172.499984741211 " stroke="none" fill="#6E6E6E" fill-rule="evenodd" stroke-width="0" fill-opacity="1" />
  <path d="M326.420043945313,172.499984741211 L324.132904052734,166.826614379883 L328.572570800781,166.774169921875 L326.420043945313,172.499984741211 " stroke="#6E6E6E" fill="none" stroke-width="1" stroke-opacity="1" />
  <path d="M224.243774414063,196.074371337891 L283.799987792969,196.147384643555 " stroke="#6E6E6E" fill="none" stroke-width="1" stroke-opacity="1" />
  <path d="M289.5,196.154373168945 L283.797271728516,198.367385864258 L283.802734375,193.927383422852 L289.5,196.154373168945 " stroke="none" fill="#6E6E6E" fill-rule="evenodd" stroke-width="0" fill-opacity="1" />
  <path d="M289.5,196.154373168945 L283.797271728516,198.367385864258 L283.802734375,193.927383422852 L289.5,196.154373168945 " stroke="#6E6E6E" fill="none" stroke-width="1" stroke-opacity="1" />
  <path d="M298.003936767578,172.5 L355.396057128906,172.5 L355.396026611328,172.5 C360.092620849609,172.499984741211 363.899963378906,176.307327270508 363.899963378906,181.003921508789 C363.899963378906,181.003921508789 363.899963378906,181.003936767578 363.899963378906,181.003936767578 L363.899993896484,181.003936767578 L363.899993896484,211.396057128906 L363.899963378906,211.396057128906 C363.899963378906,216.092651367188 360.092651367188,219.899993896484 355.396057128906,219.899993896484 L355.396057128906,219.899993896484 L298.003936767578,219.899993896484 L298.003936767578,219.899993896484 C293.307342529297,219.899993896484 289.5,216.092651367188 289.5,211.396057128906 L289.5,181.003936767578 L289.499969482422,181.003936767578 C289.499969482422,176.307342529297 293.307312011719,172.5 298.00390625,172.499984741211 " stroke="none" fill="#F2E279" fill-rule="evenodd" stroke-width="0" fill-opacity="1" />
  <text x="21.6295223236084" y="29.9967193603516" dx="0" dy="0" font-family="Arial" font-size="8.99999973177911pt" fill="#000000" style="text-anchor:start" transform="matrix(0.750000 0.000000 0.000000 0.750000 289.5 172.5)">Eliminate </text>
  <text x="11.9528551101685" y="43.7967185974121" dx="0" dy="0" font-family="Arial" font-size="8.99999973177911pt" fill="#000000" style="text-anchor:start" transform="matrix(0.750000 0.000000 0.000000 0.750000 289.5 172.5)">Polygon Part</text>
  <path d="M298.003936767578,172.5 L355.396057128906,172.5 L355.396026611328,172.5 C360.092620849609,172.499984741211 363.899963378906,176.307327270508 363.899963378906,181.003921508789 C363.899963378906,181.003921508789 363.899963378906,181.003936767578 363.899963378906,181.003936767578 L363.899993896484,181.003936767578 L363.899993896484,211.396057128906 L363.899963378906,211.396057128906 C363.899963378906,216.092651367188 360.092651367188,219.899993896484 355.396057128906,219.899993896484 L355.396057128906,219.899993896484 L298.003936767578,219.899993896484 L298.003936767578,219.899993896484 C293.307342529297,219.899993896484 289.5,216.092651367188 289.5,211.396057128906 L289.5,181.003936767578 L289.499969482422,181.003936767578 C289.499969482422,176.307342529297 293.307312011719,172.5 298.00390625,172.499984741211 " stroke="none" fill="none" stroke-width="0.75" stroke-opacity="0" />
  <path d="M573.749938964844,195.623016357422 C573.749938964844,218.33464050293 543.529174804688,236.746047973633 506.25,236.746047973633 C468.970794677734,236.746047973633 438.75,218.334655761719 438.75,195.623016357422 C438.75,195.623016357422 438.75,195.623016357422 438.75,195.623016357422 L438.749969482422,195.623062133789 C438.749938964844,172.911437988281 468.970703125,154.5 506.249938964844,154.5 C543.529113769531,154.499984741211 573.749938964844,172.911376953125 573.749938964844,195.623016357422 C573.749938964844,195.623016357422 573.749938964844,195.623016357422 573.749938964844,195.623016357422 " stroke="none" fill="#83CC7C" fill-rule="evenodd" stroke-width="0" fill-opacity="1" />
  <text x="72.0255279541016" y="53.2274284362793" dx="0" dy="0" font-family="Arial" font-size="8.99999973177911pt" fill="#000000" style="text-anchor:start" transform="matrix(0.750000 0.000000 0.000000 0.750000 438.75 154.5)">1202</text>
  <text x="100.056861877441" y="53.2274284362793" dx="0" dy="0" font-family="Arial" font-size="8.99999973177911pt" fill="#000000" style="text-anchor:start" transform="matrix(0.750000 0.000000 0.000000 0.750000 438.75 154.5)">-</text>
  <text x="4.9895224571228" y="67.0274276733398" dx="0" dy="0" font-family="Arial" font-size="8.99999973177911pt" fill="#000000" style="text-anchor:start" transform="matrix(0.750000 0.000000 0.000000 0.750000 438.75 154.5)">Canopy_Boundary_Edited.shp</text>
  <path d="M573.749938964844,195.623016357422 C573.749938964844,218.33464050293 543.529174804688,236.746047973633 506.25,236.746047973633 C468.970794677734,236.746047973633 438.75,218.334655761719 438.75,195.623016357422 C438.75,195.623016357422 438.75,195.623016357422 438.75,195.623016357422 L438.749969482422,195.623062133789 C438.749938964844,172.911437988281 468.970703125,154.5 506.249938964844,154.5 C543.529113769531,154.499984741211 573.749938964844,172.911376953125 573.749938964844,195.623016357422 C573.749938964844,195.623016357422 573.749938964844,195.623016357422 573.749938964844,195.623016357422 " stroke="none" fill="none" stroke-width="0.75" stroke-opacity="0" />
  <path d="M366.149963378906,100.949989318848 C366.149963378906,116.938629150391 347.983917236328,129.899978637695 325.575012207031,129.899978637695 C303.166046142578,129.899993896484 285,116.93864440918 285,100.949996948242 C285,100.949996948242 285,100.949996948242 285,100.949996948242 L284.999969482422,100.950019836426 C284.999969482422,84.9613723754883 303.165985107422,72.0000076293945 325.574951171875,72 C347.98388671875,71.9999847412109 366.149963378906,84.9613342285156 366.149963378906,100.949996948242 C366.149963378906,100.949996948242 366.149963378906,100.949996948242 366.149963378906,100.949996948242 " stroke="none" fill="#52C0CC" fill-rule="evenodd" stroke-width="0" fill-opacity="1" />
  <text x="20.1195220947266" y="43.8967208862305" dx="0" dy="0" font-family="Arial" font-size="8.99999973177911pt" fill="#000000" style="text-anchor:start" transform="matrix(0.750000 0.000000 0.000000 0.750000 285 72)">Percentage</text>
  <path d="M366.149963378906,100.949989318848 C366.149963378906,116.938629150391 347.983917236328,129.899978637695 325.575012207031,129.899978637695 C303.166046142578,129.899993896484 285,116.93864440918 285,100.949996948242 C285,100.949996948242 285,100.949996948242 285,100.949996948242 L284.999969482422,100.950019836426 C284.999969482422,84.9613723754883 303.165985107422,72.0000076293945 325.574951171875,72 C347.98388671875,71.9999847412109 366.149963378906,84.9613342285156 366.149963378906,100.949996948242 C366.149963378906,100.949996948242 366.149963378906,100.949996948242 366.149963378906,100.949996948242 " stroke="none" fill="none" stroke-width="0.75" stroke-opacity="0" />
  <path d="M224.249984741211,195.998016357422 C224.249984741211,217.259887695313 196.379699707031,234.496047973633 162.000015258789,234.496047973633 C127.620292663574,234.496047973633 99.7500076293945,217.259902954102 99.75,195.998016357422 C99.75,195.998016357422 99.75,195.998016357422 99.75,195.998016357422 L99.7499923706055,195.998062133789 C99.7499618530273,174.736175537109 127.620223999023,157.5 161.999938964844,157.5 C196.379653930664,157.499969482422 224.249954223633,174.736114501953 224.249984741211,195.998016357422 C224.249984741211,195.998016357422 224.249984741211,195.998016357422 224.249984741211,195.998016357422 " stroke="none" fill="#70AECC" fill-rule="evenodd" stroke-width="0" fill-opacity="1" />
  <text x="13.6588554382324" y="56.6274261474609" dx="0" dy="0" font-family="Arial" font-size="8.99999973177911pt" fill="#000000" style="text-anchor:start" transform="matrix(0.750000 0.000000 0.000000 0.750000 99.75 157.5)">1202 </text>
  <text x="45.0235214233398" y="56.6274261474609" dx="0" dy="0" font-family="Arial" font-size="8.99999973177911pt" fill="#000000" style="text-anchor:start" transform="matrix(0.750000 0.000000 0.000000 0.750000 99.75 157.5)">-</text>
  <text x="46.6861877441406" y="56.6274261474609" dx="0" dy="0" font-family="Arial" font-size="8.99999973177911pt" fill="#000000" style="text-anchor:start" transform="matrix(0.750000 0.000000 0.000000 0.750000 99.75 157.5)">Canopy_Boundary</text>
  <path d="M224.249984741211,195.998016357422 C224.249984741211,217.259887695313 196.379699707031,234.496047973633 162.000015258789,234.496047973633 C127.620292663574,234.496047973633 99.7500076293945,217.259902954102 99.75,195.998016357422 C99.75,195.998016357422 99.75,195.998016357422 99.75,195.998016357422 L99.7499923706055,195.998062133789 C99.7499618530273,174.736175537109 127.620223999023,157.5 161.999938964844,157.5 C196.379653930664,157.499969482422 224.249954223633,174.736114501953 224.249984741211,195.998016357422 C224.249984741211,195.998016357422 224.249984741211,195.998016357422 224.249984741211,195.998016357422 " stroke="none" fill="none" stroke-width="0.75" stroke-opacity="0" />
</svg>